static_00
version=1
nRows=27
nColumns=46
inDegrees=yes
endheader
time	ground_force1_vx	ground_force1_vy	ground_force1_vz	ground_force1_px	ground_force1_py	ground_force1_pz	ground_torque1_x	ground_torque1_y	ground_torque1_z	ground_force2_vx	ground_force2_vy	ground_force2_vz	ground_force2_px	ground_force2_py	ground_force2_pz	ground_torque2_x	ground_torque2_y	ground_torque2_z	ground_force3_vx	ground_force3_vy	ground_force3_vz	ground_force3_px	ground_force3_py	ground_force3_pz	ground_torque3_x	ground_torque3_y	ground_torque3_z	ground_force4_vx	ground_force4_vy	ground_force4_vz	ground_force4_px	ground_force4_py	ground_force4_pz	ground_torque4_x	ground_torque4_y	ground_torque4_z	ground_force5_vx	ground_force5_vy	ground_force5_vz	ground_force5_px	ground_force5_py	ground_force5_pz	ground_torque5_x	ground_torque5_y	ground_torque5_z
0.820000	3.132461	8.480524	0.515188	0.237851	0.000000	0.793789	0.000000	-0.142753	-0.000000	-0.000000	-0.000000	0.000000	0.200000	0.000000	0.320000	0.000000	0.000000	-0.000000	-0.000000	-0.000000	0.000000	0.200000	0.000000	-0.300000	0.000000	0.000000	-0.000000	2.261382	821.524292	0.572363	0.240160	0.000000	-0.924896	-0.000010	-0.182115	0.000003	-0.000000	-0.000000	0.000000	0.200000	0.000000	-1.500000	0.000000	0.000000	-0.000000	
0.821000	3.295647	10.373417	1.001036	0.227373	0.000000	0.843624	-0.000000	0.031120	0.000000	-0.000000	-0.000000	0.000000	0.200000	0.000000	0.320000	0.000000	0.000000	-0.000000	-0.000000	-0.000000	0.000000	0.200000	0.000000	-0.300000	0.000000	0.000000	-0.000000	2.098795	820.242920	0.248234	0.240110	0.000000	-0.925101	0.000010	-0.275409	0.000016	-0.000000	-0.000000	0.000000	0.200000	0.000000	-1.500000	0.000000	0.000000	-0.000000	
0.822000	2.648055	9.742919	-0.126101	0.224855	0.000000	0.820005	-0.000000	0.029246	0.000000	-0.000000	-0.000000	0.000000	0.200000	0.000000	0.320000	0.000000	0.000000	-0.000000	-0.000000	-0.000000	0.000000	0.200000	0.000000	-0.300000	0.000000	0.000000	-0.000000	2.586555	821.198975	0.891391	0.240338	0.000000	-0.925104	0.000034	-0.254515	0.000014	-0.000000	-0.000000	0.000000	0.200000	0.000000	-1.500000	0.000000	0.000000	-0.000000	
0.823000	2.649773	9.743539	0.837955	0.218219	0.000000	0.837377	-0.000000	-0.149768	0.000000	-0.000000	-0.000000	0.000000	0.200000	0.000000	0.320000	0.000000	0.000000	-0.000000	-0.000000	-0.000000	0.000000	0.200000	0.000000	-0.300000	0.000000	0.000000	-0.000000	1.612577	821.846436	0.892410	0.239959	0.000000	-0.924799	0.000056	-0.321003	0.000016	-0.000000	-0.000000	0.000000	0.200000	0.000000	-1.500000	0.000000	0.000000	-0.000000	
0.824000	2.487445	10.685655	0.837955	0.233128	0.000000	0.839703	-0.000000	-0.110599	0.000000	-0.000000	-0.000000	0.000000	0.200000	0.000000	0.320000	0.000000	0.000000	-0.000000	-0.000000	-0.000000	0.000000	0.200000	0.000000	-0.300000	0.000000	0.000000	-0.000000	1.449990	822.158569	0.893431	0.240259	0.000000	-0.925440	0.000033	-0.312076	0.000005	-0.000000	-0.000000	0.000000	0.200000	0.000000	-1.500000	0.000000	0.000000	-0.000000	
0.825000	2.972710	8.795535	0.031038	0.208923	0.000000	0.801682	-0.000001	-0.299813	-0.000000	-0.000000	-0.000000	0.000000	0.200000	0.000000	0.320000	0.000000	0.000000	-0.000000	-0.000000	-0.000000	0.000000	0.200000	0.000000	-0.300000	0.000000	0.000000	-0.000000	2.100339	822.487549	0.411827	0.239958	0.000000	-0.924806	0.000003	-0.119914	0.000004	-0.000000	-0.000000	0.000000	0.200000	0.000000	-1.500000	0.000000	0.000000	-0.000000	
0.826000	2.650631	11.318306	0.517735	0.206256	0.000000	0.853010	-0.000001	-0.083975	-0.000000	-0.000000	-0.000000	0.000000	0.200000	0.000000	0.320000	0.000000	0.000000	-0.000000	-0.000000	-0.000000	0.000000	0.200000	0.000000	-0.300000	0.000000	0.000000	-0.000000	1.776708	823.123352	0.572363	0.240091	0.000000	-0.925212	0.000064	-0.138671	0.000002	-0.000000	-0.000000	0.000000	0.200000	0.000000	-1.500000	0.000000	0.000000	-0.000000	
0.827000	2.810382	8.795793	1.321255	0.223217	0.000000	0.794876	-0.000000	-0.181371	0.000000	-0.000000	-0.000000	0.000000	0.200000	0.000000	0.320000	0.000000	0.000000	-0.000000	-0.000000	-0.000000	0.000000	0.200000	0.000000	-0.300000	0.000000	0.000000	-0.000000	1.130994	822.488586	-0.233370	0.239705	0.000000	-0.924702	0.000079	-0.045126	-0.000003	-0.000000	-0.000000	0.000000	0.200000	0.000000	-1.500000	0.000000	0.000000	-0.000000	
0.828000	2.485727	10.056396	1.160721	0.220888	0.000000	0.847761	-0.000001	0.081336	0.000000	-0.000000	-0.000000	0.000000	0.200000	0.000000	0.320000	0.000000	0.000000	-0.000000	-0.000000	-0.000000	0.000000	0.200000	0.000000	-0.300000	0.000000	0.000000	-0.000000	2.747597	821.206055	0.891391	0.239963	0.000000	-0.924819	0.000003	-0.289650	0.000014	-0.000000	-0.000000	0.000000	0.200000	0.000000	-1.500000	0.000000	0.000000	-0.000000	
0.829000	2.484009	9.741653	0.354654	0.217354	0.000000	0.834933	-0.000001	0.139003	0.000000	-0.000000	-0.000000	0.000000	0.200000	0.000000	0.320000	0.000000	0.000000	-0.000000	-0.000000	-0.000000	0.000000	0.200000	0.000000	-0.300000	0.000000	0.000000	-0.000000	1.776708	821.526611	-0.396961	0.240030	0.000000	-0.924952	0.000038	-0.215691	-0.000001	-0.000000	-0.000000	0.000000	0.200000	0.000000	-1.500000	0.000000	0.000000	-0.000000	
0.830000	2.487445	9.425317	0.515188	0.205894	0.000000	0.784944	-0.000001	-0.260816	-0.000000	-0.000000	-0.000000	0.000000	0.200000	0.000000	0.320000	0.000000	0.000000	-0.000000	-0.000000	-0.000000	0.000000	0.200000	0.000000	-0.300000	0.000000	0.000000	-0.000000	2.098795	821.843445	0.089739	0.240075	0.000000	-0.925279	0.000047	-0.172858	-0.000003	-0.000000	-0.000000	0.000000	0.200000	0.000000	-1.500000	0.000000	0.000000	-0.000000	
0.831000	2.489163	8.799013	0.355503	0.215441	0.000000	0.846630	-0.000000	-0.181578	0.000000	-0.000000	-0.000000	0.000000	0.200000	0.000000	0.320000	0.000000	0.000000	-0.000000	-0.000000	-0.000000	0.000000	0.200000	0.000000	-0.300000	0.000000	0.000000	-0.000000	1.612577	821.842773	1.699163	0.240145	0.000000	-0.925188	0.000001	-0.295900	-0.000001	-0.000000	-0.000000	0.000000	0.200000	0.000000	-1.500000	0.000000	0.000000	-0.000000	
0.832000	2.972710	7.853638	1.159023	0.232788	0.000000	0.819466	-0.000000	-0.226371	0.000000	-0.000000	-0.000000	0.000000	0.200000	0.000000	0.320000	0.000000	0.000000	-0.000000	-0.000000	-0.000000	0.000000	0.200000	0.000000	-0.300000	0.000000	0.000000	-0.000000	2.259836	819.605835	1.375034	0.240145	0.000000	-0.925347	0.000048	-0.376357	0.000015	-0.000000	-0.000000	0.000000	0.200000	0.000000	-1.500000	0.000000	0.000000	-0.000000	
0.833000	2.325117	9.740804	-0.450565	0.229046	0.000000	0.792239	-0.000000	-0.173649	0.000000	-0.000000	-0.000000	0.000000	0.200000	0.000000	0.320000	0.000000	0.000000	-0.000000	-0.000000	-0.000000	0.000000	0.200000	0.000000	-0.300000	0.000000	0.000000	-0.000000	1.611033	819.602783	1.214500	0.240210	0.000000	-0.925064	0.000047	-0.399170	0.000002	-0.000000	-0.000000	0.000000	0.200000	0.000000	-1.500000	0.000000	0.000000	-0.000000	
0.834000	2.325117	8.166305	0.516037	0.213430	0.000000	0.762499	-0.000001	-0.223878	0.000000	-0.000000	-0.000000	0.000000	0.200000	0.000000	0.320000	0.000000	0.000000	-0.000000	-0.000000	-0.000000	0.000000	0.200000	0.000000	-0.300000	0.000000	0.000000	-0.000000	3.069681	820.242920	1.214500	0.240172	0.000000	-0.925045	0.000001	-0.337147	0.000011	-0.000000	-0.000000	0.000000	0.200000	0.000000	-1.500000	0.000000	0.000000	-0.000000	
0.835000	3.134179	8.482543	0.515188	0.221671	0.000000	0.792744	-0.000000	-0.267427	0.000000	-0.000000	-0.000000	0.000000	0.200000	0.000000	0.320000	0.000000	0.000000	-0.000000	-0.000000	-0.000000	0.000000	0.200000	0.000000	-0.300000	0.000000	0.000000	-0.000000	1.456168	822.485840	0.732897	0.240008	0.000000	-0.925078	0.000014	-0.026891	0.000010	-0.000000	-0.000000	0.000000	0.200000	0.000000	-1.500000	0.000000	0.000000	-0.000000	
0.836000	2.486586	7.222104	0.356351	0.213524	0.000000	0.838680	-0.000000	0.032420	0.000000	-0.000000	-0.000000	0.000000	0.200000	0.000000	0.320000	0.000000	0.000000	-0.000000	-0.000000	-0.000000	0.000000	0.200000	0.000000	-0.300000	0.000000	0.000000	-0.000000	1.937752	821.526855	0.894451	0.239839	0.000000	-0.925176	0.000073	-0.187435	0.000007	-0.000000	-0.000000	0.000000	0.200000	0.000000	-1.500000	0.000000	0.000000	-0.000000	
0.837000	2.648914	8.483419	0.033585	0.226982	0.000000	0.790168	-0.000000	-0.176570	0.000000	-0.000000	-0.000000	0.000000	0.200000	0.000000	0.320000	0.000000	0.000000	-0.000000	-0.000000	-0.000000	0.000000	0.200000	0.000000	-0.300000	0.000000	0.000000	-0.000000	1.778254	820.566528	0.893430	0.239915	0.000000	-0.925568	0.000053	-0.125861	-0.000004	-0.000000	-0.000000	0.000000	0.200000	0.000000	-1.500000	0.000000	0.000000	-0.000000	
0.838000	2.649773	8.477533	0.194968	0.233504	0.000000	0.759800	-0.000000	-0.308168	0.000000	-0.000000	-0.000000	0.000000	0.200000	0.000000	0.320000	0.000000	0.000000	-0.000000	-0.000000	-0.000000	0.000000	0.200000	0.000000	-0.300000	0.000000	0.000000	-0.000000	2.258292	820.559814	0.892410	0.240345	0.000000	-0.925269	0.000015	-0.402529	0.000013	-0.000000	-0.000000	0.000000	0.200000	0.000000	-1.500000	0.000000	0.000000	-0.000000	
0.839000	3.133320	10.687675	0.837955	0.222218	0.000000	0.839228	-0.000000	-0.025633	0.000000	-0.000000	-0.000000	0.000000	0.200000	0.000000	0.320000	0.000000	0.000000	-0.000000	-0.000000	-0.000000	0.000000	0.200000	0.000000	-0.300000	0.000000	0.000000	-0.000000	2.097249	822.487915	0.730856	0.239845	0.000000	-0.925373	0.000031	-0.378973	0.000014	-0.000000	-0.000000	0.000000	0.200000	0.000000	-1.500000	0.000000	0.000000	-0.000000	
0.840000	2.973569	11.003818	1.158174	0.217507	0.000000	0.837232	-0.000000	-0.259291	0.000000	-0.000000	-0.000000	0.000000	0.200000	0.000000	0.320000	0.000000	0.000000	-0.000000	-0.000000	-0.000000	0.000000	0.200000	0.000000	-0.300000	0.000000	0.000000	-0.000000	2.262925	820.562866	1.699163	0.240259	0.000000	-0.924787	0.000041	-0.181500	0.000007	-0.000000	-0.000000	0.000000	0.200000	0.000000	-1.500000	0.000000	0.000000	-0.000000	
0.841000	2.648914	11.002419	0.840501	0.223137	0.000000	0.847228	-0.000000	0.052867	0.000000	-0.000000	-0.000000	0.000000	0.200000	0.000000	0.320000	0.000000	0.000000	-0.000000	-0.000000	-0.000000	0.000000	0.200000	0.000000	-0.300000	0.000000	0.000000	-0.000000	1.451534	821.203979	1.377073	0.240068	0.000000	-0.925227	0.000072	-0.246778	0.000010	-0.000000	-0.000000	0.000000	0.200000	0.000000	-1.500000	0.000000	0.000000	-0.000000	
0.842000	3.295647	7.854514	0.674873	0.243723	0.000000	0.817257	-0.000000	-0.251131	0.000000	-0.000000	-0.000000	0.000000	0.200000	0.000000	0.320000	0.000000	0.000000	-0.000000	-0.000000	-0.000000	0.000000	0.200000	0.000000	-0.300000	0.000000	0.000000	-0.000000	2.422423	821.200317	1.377073	0.240332	0.000000	-0.924931	0.000002	-0.269990	0.000003	-0.000000	-0.000000	0.000000	0.200000	0.000000	-1.500000	0.000000	0.000000	-0.000000	
0.843000	1.838135	10.058320	-0.128647	0.196071	0.000000	0.816377	-0.000001	0.016843	0.000000	-0.000000	-0.000000	0.000000	0.200000	0.000000	0.320000	0.000000	0.000000	-0.000000	-0.000000	-0.000000	0.000000	0.200000	0.000000	-0.300000	0.000000	0.000000	-0.000000	2.097249	822.806519	0.410808	0.239888	0.000000	-0.925017	0.000028	-0.288312	0.000001	-0.000000	-0.000000	0.000000	0.200000	0.000000	-1.500000	0.000000	0.000000	-0.000000	
0.844000	2.488304	10.687188	0.194968	0.212206	0.000000	0.824312	-0.000000	-0.149918	0.000000	-0.000000	-0.000000	0.000000	0.200000	0.000000	0.320000	0.000000	0.000000	-0.000000	-0.000000	-0.000000	0.000000	0.200000	0.000000	-0.300000	0.000000	0.000000	-0.000000	1.612577	819.920044	0.894451	0.240340	0.000000	-0.925143	0.000056	-0.244678	0.000012	-0.000000	-0.000000	0.000000	0.200000	0.000000	-1.500000	0.000000	0.000000	-0.000000	
0.845000	3.297365	8.482410	0.676571	0.238783	0.000000	0.794863	-0.000000	-0.374142	0.000000	-0.000000	-0.000000	0.000000	0.200000	0.000000	0.320000	0.000000	0.000000	-0.000000	-0.000000	-0.000000	0.000000	0.200000	0.000000	-0.300000	0.000000	0.000000	-0.000000	2.100339	819.924438	1.375034	0.239979	0.000000	-0.925123	0.000031	-0.274681	0.000018	-0.000000	-0.000000	0.000000	0.200000	0.000000	-1.500000	0.000000	0.000000	-0.000000	
0.846000	2.485727	9.114280	0.677420	0.202774	0.000000	0.843993	-0.000000	0.074868	0.000000	-0.000000	-0.000000	0.000000	0.200000	0.000000	0.320000	0.000000	0.000000	-0.000000	-0.000000	-0.000000	0.000000	0.200000	0.000000	-0.300000	0.000000	0.000000	-0.000000	1.449990	820.239624	0.571342	0.240251	0.000000	-0.925663	0.000033	-0.299551	0.000006	-0.000000	-0.000000	0.000000	0.200000	0.000000	-1.500000	0.000000	0.000000	-0.000000	
